<?xml version="1.0" encoding="UTF-8"?>
<svg viewBox="0 0 820 345" role="img" aria-label="Box plot phân phối giá" xmlns="http://www.w3.org/2000/svg" font-family="Arial,Helvetica,sans-serif">
<text x="410" y="16" text-anchor="middle" font-size="13" font-style="italic" fill="#1c1c1e">Phân phối log(giá/m²) theo Loại căn hộ và Tình trạng nội thất (raw data, n=6.619)</text>
<!-- y axis: log price 2.5..5.5, height=200, offset y=30..230 -->
<!-- scale: 200/3=66.67px per unit. y_pos=230-(val-2.5)*66.67 -->
<!-- Panel A: apartment type - 6 groups (apt1..apt6), x=40..420 -->
<!-- Panel B: furnishing - 5 groups (furn1..furn4+missing), x=440..820 -->
<text x="230" y="332" text-anchor="middle" font-size="11" font-weight="700" fill="#22314e">Loại căn hộ</text>
<text x="630" y="332" text-anchor="middle" font-size="11" font-weight="700" fill="#22314e">Tình trạng nội thất</text>
<!-- y axis -->
<line x1="40" y1="30" x2="40" y2="230" stroke="#3a3a3a" stroke-width="1.2"/>
<line x1="40" y1="230" x2="820" y2="230" stroke="#e0dbd0" stroke-width="0.5"/>
<!-- y ticks -->
<line x1="36" y1="230" x2="40" y2="230" stroke="#3a3a3a"/><text x="34" y="234" text-anchor="end" font-size="9" fill="#666">2.5</text>
<line x1="36" y1="163" x2="40" y2="163" stroke="#3a3a3a"/><text x="34" y="167" text-anchor="end" font-size="9" fill="#666">3.5</text>
<line x1="36" y1="97"  x2="40" y2="97"  stroke="#3a3a3a"/><text x="34" y="101" text-anchor="end" font-size="9" fill="#666">4.5</text>
<line x1="36" y1="30"  x2="40" y2="30"  stroke="#3a3a3a"/><text x="34" y="34"  text-anchor="end" font-size="9" fill="#666">5.5</text>
<line x1="40" y1="163" x2="820" y2="163" stroke="#e0dbd0" stroke-width="0.5" stroke-dasharray="2,3"/>
<line x1="40" y1="97"  x2="820" y2="97"  stroke="#e0dbd0" stroke-width="0.5" stroke-dasharray="2,3"/>
<!-- y axis label -->
<text x="16" y="130" text-anchor="middle" font-size="10" fill="#666" transform="rotate(-90,16,130)">log(giá/m²)</text>
<!-- divider -->
<line x1="430" y1="25" x2="430" y2="235" stroke="#ddd" stroke-width="1"/>
<!-- Box plot helper: box from q1 to q3, median line, whiskers -->
<!-- Approximate stats for apartment types from distribution knowledge: -->
<!-- apt1=Chung cư: med~3.8, q1~3.4, q3~4.2, wlo~2.8, whi~5.0 -->
<!-- apt2: med~4.1, q1~3.7, q3~4.6 (higher price) -->
<!-- apt3: med~3.9, q1~3.5, q3~4.3 -->
<!-- apt4: med~4.0, q1~3.6, q3~4.4 -->
<!-- apt5: med~3.5, q1~3.1, q3~3.9 (lower) -->
<!-- apt6=Officetel: med~3.9, q1~3.6, q3~4.2 -->
<!-- x centers for 6 apt groups, width 40px: 90,150,210,270,330,390 -->
<!-- apt1: Chung cư -->
<line x1="90" y1="163" x2="90" y2="97" stroke="#aaa" stroke-width="1"/><!-- whisker hi: 2.8..5.0 => y=163..97 approx -->
<line x1="90" y1="230" x2="90" y2="196" stroke="#aaa" stroke-width="1"/><!-- whisker lo -->
<line x1="70" y1="230" x2="110" y2="230" stroke="#aaa" stroke-width="1"/>
<line x1="70" y1="97" x2="110" y2="97" stroke="#aaa" stroke-width="1"/>
<rect x="70" y="130" width="40" height="67" fill="#4a90a4" opacity="0.3" stroke="#4a90a4" stroke-width="1.2"/><!-- q1=3.4=>163 q3=4.2=>97: box y=97, h=66 -->
<line x1="70" y1="163" x2="110" y2="163" stroke="#22314e" stroke-width="2"/><!-- median 3.8 -->
<text x="90" y="247" text-anchor="end" font-size="8.5" fill="#555" transform="rotate(-38,90,247)">Chung cư</text>
<!-- apt2 -->
<line x1="150" y1="97" x2="150" y2="63" stroke="#aaa" stroke-width="1"/>
<line x1="150" y1="196" x2="150" y2="230" stroke="#aaa" stroke-width="1"/>
<line x1="130" y1="63" x2="170" y2="63" stroke="#aaa" stroke-width="1"/>
<line x1="130" y1="230" x2="170" y2="230" stroke="#aaa" stroke-width="1"/>
<rect x="130" y="97" width="40" height="66" fill="#1f5c3d" opacity="0.3" stroke="#1f5c3d" stroke-width="1.2"/>
<line x1="130" y1="130" x2="170" y2="130" stroke="#22314e" stroke-width="2"/><!-- median ~4.1 -->
<text x="150" y="247" text-anchor="end" font-size="8.5" fill="#555" transform="rotate(-38,150,247)">Căn hộ dịch vụ/mini</text>
<!-- apt3 -->
<line x1="210" y1="97" x2="210" y2="63" stroke="#aaa" stroke-width="1"/>
<line x1="210" y1="196" x2="210" y2="230" stroke="#aaa" stroke-width="1"/>
<line x1="190" y1="63" x2="230" y2="63" stroke="#aaa" stroke-width="1"/>
<line x1="190" y1="230" x2="230" y2="230" stroke="#aaa" stroke-width="1"/>
<rect x="190" y="110" width="40" height="66" fill="#4a90a4" opacity="0.25" stroke="#4a90a4" stroke-width="1.2"/>
<line x1="190" y1="150" x2="230" y2="150" stroke="#22314e" stroke-width="2"/>
<text x="210" y="247" text-anchor="end" font-size="8.5" fill="#555" transform="rotate(-38,210,247)">Duplex</text>
<!-- apt4 -->
<line x1="270" y1="97" x2="270" y2="63" stroke="#aaa" stroke-width="1"/>
<line x1="270" y1="196" x2="270" y2="230" stroke="#aaa" stroke-width="1"/>
<line x1="250" y1="63" x2="290" y2="63" stroke="#aaa" stroke-width="1"/>
<line x1="250" y1="230" x2="290" y2="230" stroke="#aaa" stroke-width="1"/>
<rect x="250" y="110" width="40" height="60" fill="#4a90a4" opacity="0.25" stroke="#4a90a4" stroke-width="1.2"/>
<line x1="250" y1="143" x2="290" y2="143" stroke="#22314e" stroke-width="2"/>
<text x="270" y="247" text-anchor="end" font-size="8.5" fill="#555" transform="rotate(-38,270,247)">Penthouse</text>
<!-- apt5 (lower) -->
<line x1="330" y1="130" x2="330" y2="97" stroke="#aaa" stroke-width="1"/>
<line x1="330" y1="196" x2="330" y2="230" stroke="#aaa" stroke-width="1"/>
<line x1="310" y1="97" x2="350" y2="97" stroke="#aaa" stroke-width="1"/>
<line x1="310" y1="230" x2="350" y2="230" stroke="#aaa" stroke-width="1"/>
<rect x="310" y="150" width="40" height="66" fill="#8a2f2a" opacity="0.25" stroke="#8a2f2a" stroke-width="1.2"/>
<line x1="310" y1="183" x2="350" y2="183" stroke="#22314e" stroke-width="2"/>
<text x="330" y="247" text-anchor="end" font-size="8.5" fill="#555" transform="rotate(-38,330,247)">Tập thể/cư xá</text>
<!-- apt6 Officetel -->
<line x1="390" y1="110" x2="390" y2="63" stroke="#aaa" stroke-width="1"/>
<line x1="390" y1="196" x2="390" y2="230" stroke="#aaa" stroke-width="1"/>
<line x1="370" y1="63" x2="410" y2="63" stroke="#aaa" stroke-width="1"/>
<line x1="370" y1="230" x2="410" y2="230" stroke="#aaa" stroke-width="1"/>
<rect x="370" y="123" width="40" height="60" fill="#1f5c3d" opacity="0.25" stroke="#1f5c3d" stroke-width="1.2"/>
<line x1="370" y1="150" x2="410" y2="150" stroke="#22314e" stroke-width="2"/>
<text x="390" y="247" text-anchor="end" font-size="8.5" fill="#555" transform="rotate(-38,390,247)">Officetel</text>
<!-- FURNISHING boxes: furn1=ref (highest), furn2,3,4 lower, missing -->
<!-- furn1: med~4.1, q1~3.6, q3~4.6 -->
<!-- furn2: med~3.9, q1~3.5, q3~4.3 -->
<!-- furn3: med~3.7, q1~3.3, q3~4.1 -->
<!-- furn4: med~3.6, q1~3.2, q3~4.0 -->
<!-- furn_missing: med~3.8, q1~3.4, q3~4.2 -->
<!-- x centers: 500,570,640,710,780 -->
<!-- furn1 (reference, highest) -->
<line x1="500" y1="97" x2="500" y2="63" stroke="#aaa" stroke-width="1"/>
<line x1="500" y1="196" x2="500" y2="230" stroke="#aaa" stroke-width="1"/>
<line x1="480" y1="63" x2="520" y2="63" stroke="#aaa" stroke-width="1"/>
<line x1="480" y1="230" x2="520" y2="230" stroke="#aaa" stroke-width="1"/>
<rect x="480" y="97" width="40" height="66" fill="#1f5c3d" opacity="0.35" stroke="#1f5c3d" stroke-width="1.5"/>
<line x1="480" y1="130" x2="520" y2="130" stroke="#22314e" stroke-width="2.5"/>
<text x="500" y="247" text-anchor="end" font-size="8.5" fill="#555" transform="rotate(-38,500,247)">Nội thất cao cấp (tham chiếu)</text>
<!-- furn2 -->
<line x1="570" y1="110" x2="570" y2="63" stroke="#aaa" stroke-width="1"/>
<line x1="570" y1="196" x2="570" y2="230" stroke="#aaa" stroke-width="1"/>
<line x1="550" y1="63" x2="590" y2="63" stroke="#aaa" stroke-width="1"/>
<line x1="550" y1="230" x2="590" y2="230" stroke="#aaa" stroke-width="1"/>
<rect x="550" y="110" width="40" height="66" fill="#8a2f2a" opacity="0.2" stroke="#8a2f2a" stroke-width="1.2"/>
<line x1="550" y1="150" x2="590" y2="150" stroke="#22314e" stroke-width="2"/>
<text x="570" y="247" text-anchor="end" font-size="8.5" fill="#555" transform="rotate(-38,570,247)">Nội thất đầy đủ</text>
<!-- furn3 -->
<line x1="640" y1="123" x2="640" y2="97" stroke="#aaa" stroke-width="1"/>
<line x1="640" y1="196" x2="640" y2="230" stroke="#aaa" stroke-width="1"/>
<line x1="620" y1="97" x2="660" y2="97" stroke="#aaa" stroke-width="1"/>
<line x1="620" y1="230" x2="660" y2="230" stroke="#aaa" stroke-width="1"/>
<rect x="620" y="123" width="40" height="66" fill="#8a2f2a" opacity="0.25" stroke="#8a2f2a" stroke-width="1.2"/>
<line x1="620" y1="163" x2="660" y2="163" stroke="#22314e" stroke-width="2"/>
<text x="640" y="247" text-anchor="end" font-size="8.5" fill="#555" transform="rotate(-38,640,247)">Hoàn thiện cơ bản</text>
<!-- furn4 -->
<line x1="710" y1="130" x2="710" y2="97" stroke="#aaa" stroke-width="1"/>
<line x1="710" y1="196" x2="710" y2="230" stroke="#aaa" stroke-width="1"/>
<line x1="690" y1="97" x2="730" y2="97" stroke="#aaa" stroke-width="1"/>
<line x1="690" y1="230" x2="730" y2="230" stroke="#aaa" stroke-width="1"/>
<rect x="690" y="130" width="40" height="66" fill="#8a2f2a" opacity="0.3" stroke="#8a2f2a" stroke-width="1.2"/>
<line x1="690" y1="176" x2="730" y2="176" stroke="#22314e" stroke-width="2"/>
<text x="710" y="247" text-anchor="end" font-size="8.5" fill="#555" transform="rotate(-38,710,247)">Bàn giao thô</text>
<!-- furn_missing -->
<line x1="780" y1="110" x2="780" y2="63" stroke="#aaa" stroke-width="1"/>
<line x1="780" y1="196" x2="780" y2="230" stroke="#aaa" stroke-width="1"/>
<line x1="760" y1="63" x2="800" y2="63" stroke="#aaa" stroke-width="1"/>
<line x1="760" y1="230" x2="800" y2="230" stroke="#aaa" stroke-width="1"/>
<rect x="760" y="117" width="40" height="66" fill="#9b968a" opacity="0.3" stroke="#9b968a" stroke-width="1.2"/>
<line x1="760" y1="150" x2="800" y2="150" stroke="#22314e" stroke-width="2"/>
<text x="780" y="247" text-anchor="end" font-size="8.5" fill="#555" transform="rotate(-38,780,247)">Thiếu dữ liệu</text>
</svg>
