<?xml version="1.0" encoding="UTF-8"?>
<svg viewBox="0 0 900 572" role="img" aria-label="Forest plot hiệu ứng nhân quả" xmlns="http://www.w3.org/2000/svg" font-family="Arial,Helvetica,sans-serif">
<text x="250" y="24" font-size="13.5" font-style="italic" fill="#1c1c1e">Hiệu ứng nhân quả lên giá/m² (%) — Mô hình A (LinearDML), khoảng tin cậy 95%</text>
<line x1="275.5" y1="60" x2="275.5" y2="546" stroke="#d8d3c7" stroke-width="1" stroke-dasharray="1,3"/>
<text x="275.5" y="54" font-size="10.5" fill="#6b6b6b" text-anchor="middle">-30</text>
<line x1="326.5" y1="60" x2="326.5" y2="546" stroke="#d8d3c7" stroke-width="1" stroke-dasharray="1,3"/>
<text x="326.5" y="54" font-size="10.5" fill="#6b6b6b" text-anchor="middle">-20</text>
<line x1="377.5" y1="60" x2="377.5" y2="546" stroke="#d8d3c7" stroke-width="1" stroke-dasharray="1,3"/>
<text x="377.5" y="54" font-size="10.5" fill="#6b6b6b" text-anchor="middle">-10</text>
<line x1="428.5" y1="60" x2="428.5" y2="546" stroke="#3a3a3a" stroke-width="1.4" />
<text x="428.5" y="54" font-size="10.5" fill="#6b6b6b" text-anchor="middle">+0</text>
<line x1="479.5" y1="60" x2="479.5" y2="546" stroke="#d8d3c7" stroke-width="1" stroke-dasharray="1,3"/>
<text x="479.5" y="54" font-size="10.5" fill="#6b6b6b" text-anchor="middle">+10</text>
<line x1="530.5" y1="60" x2="530.5" y2="546" stroke="#d8d3c7" stroke-width="1" stroke-dasharray="1,3"/>
<text x="530.5" y="54" font-size="10.5" fill="#6b6b6b" text-anchor="middle">+20</text>
<line x1="581.5" y1="60" x2="581.5" y2="546" stroke="#d8d3c7" stroke-width="1" stroke-dasharray="1,3"/>
<text x="581.5" y="54" font-size="10.5" fill="#6b6b6b" text-anchor="middle">+30</text>
<line x1="632.5" y1="60" x2="632.5" y2="546" stroke="#d8d3c7" stroke-width="1" stroke-dasharray="1,3"/>
<text x="632.5" y="54" font-size="10.5" fill="#6b6b6b" text-anchor="middle">+40</text>
<line x1="683.5" y1="60" x2="683.5" y2="546" stroke="#d8d3c7" stroke-width="1" stroke-dasharray="1,3"/>
<text x="683.5" y="54" font-size="10.5" fill="#6b6b6b" text-anchor="middle">+50</text>
<line x1="734.5" y1="60" x2="734.5" y2="546" stroke="#d8d3c7" stroke-width="1" stroke-dasharray="1,3"/>
<text x="734.5" y="54" font-size="10.5" fill="#6b6b6b" text-anchor="middle">+60</text>
<text x="768" y="54" font-size="10.5" font-style="italic" fill="#6b6b6b">Hiệu ứng (p)</text>
<rect x="0" y="66.0" width="900" height="30" fill="#f4f1ea"/>
<text x="10" y="85.0" font-size="12" font-weight="700" fill="#22314e">Vị trí</text>
<text x="106" y="85.0" font-size="11.5" fill="#333">Gần metro ≤ 800m</text>
<line x1="530.3" y1="81.0" x2="606.9" y2="81.0" stroke="#1f5c3d" stroke-width="1.6" opacity="1"/>
<line x1="530.3" y1="78.0" x2="530.3" y2="84.0" stroke="#1f5c3d" stroke-width="1.6" opacity="1"/>
<line x1="606.9" y1="78.0" x2="606.9" y2="84.0" stroke="#1f5c3d" stroke-width="1.6" opacity="1"/>
<circle cx="567.5" cy="81.0" r="3.8" fill="#1f5c3d" stroke="#fff" stroke-width="0.8"/>
<text x="768" y="85.0" font-size="11" fill="#1f5c3d">+27.3% <tspan font-style="italic">***</tspan></text>
<text x="10" y="115.0" font-size="12" font-weight="700" fill="#22314e">Người bán</text>
<text x="106" y="115.0" font-size="11.5" fill="#333">Là công ty / môi giới</text>
<line x1="416.4" y1="111.0" x2="440.4" y2="111.0" stroke="#9b968a" stroke-width="1.6" opacity="0.5"/>
<line x1="416.4" y1="108.0" x2="416.4" y2="114.0" stroke="#9b968a" stroke-width="1.6" opacity="0.5"/>
<line x1="440.4" y1="108.0" x2="440.4" y2="114.0" stroke="#9b968a" stroke-width="1.6" opacity="0.5"/>
<circle cx="428.0" cy="111.0" r="3.8" fill="#9b968a" stroke="#fff" stroke-width="0.8"/>
<text x="768" y="115.0" font-size="11" fill="#9b968a">-0.1% <tspan font-style="italic">n.s.</tspan></text>
<rect x="0" y="126.0" width="900" height="30" fill="#f4f1ea"/>
<text x="10" y="145.0" font-size="12" font-weight="700" fill="#22314e">Nội thất</text>
<text x="106" y="145.0" font-size="11.5" fill="#333">Mã 2</text>
<line x1="387.4" y1="141.0" x2="414.4" y2="141.0" stroke="#8a2f2a" stroke-width="1.6" opacity="1"/>
<line x1="387.4" y1="138.0" x2="387.4" y2="144.0" stroke="#8a2f2a" stroke-width="1.6" opacity="1"/>
<line x1="414.4" y1="138.0" x2="414.4" y2="144.0" stroke="#8a2f2a" stroke-width="1.6" opacity="1"/>
<circle cx="400.7" cy="141.0" r="3.8" fill="#8a2f2a" stroke="#fff" stroke-width="0.8"/>
<text x="768" y="145.0" font-size="11" fill="#8a2f2a">-5.4% <tspan font-style="italic">***</tspan></text>
<text x="106" y="175.0" font-size="11.5" fill="#333">Mã 3</text>
<line x1="369.0" y1="171.0" x2="398.3" y2="171.0" stroke="#8a2f2a" stroke-width="1.6" opacity="1"/>
<line x1="369.0" y1="168.0" x2="369.0" y2="174.0" stroke="#8a2f2a" stroke-width="1.6" opacity="1"/>
<line x1="398.3" y1="168.0" x2="398.3" y2="174.0" stroke="#8a2f2a" stroke-width="1.6" opacity="1"/>
<circle cx="383.7" cy="171.0" r="3.8" fill="#8a2f2a" stroke="#fff" stroke-width="0.8"/>
<text x="768" y="175.0" font-size="11" fill="#8a2f2a">-8.8% <tspan font-style="italic">***</tspan></text>
<rect x="0" y="186.0" width="900" height="30" fill="#f4f1ea"/>
<text x="106" y="205.0" font-size="11.5" fill="#333">Mã 4</text>
<line x1="316.9" y1="201.0" x2="401.7" y2="201.0" stroke="#8a2f2a" stroke-width="1.6" opacity="1"/>
<line x1="316.9" y1="198.0" x2="316.9" y2="204.0" stroke="#8a2f2a" stroke-width="1.6" opacity="1"/>
<line x1="401.7" y1="198.0" x2="401.7" y2="204.0" stroke="#8a2f2a" stroke-width="1.6" opacity="1"/>
<circle cx="357.5" cy="201.0" r="3.8" fill="#8a2f2a" stroke="#fff" stroke-width="0.8"/>
<text x="768" y="205.0" font-size="11" fill="#8a2f2a">-13.9% <tspan font-style="italic">**</tspan></text>
<text x="106" y="235.0" font-size="11.5" fill="#333">Thiếu dữ liệu</text>
<line x1="372.2" y1="231.0" x2="399.8" y2="231.0" stroke="#8a2f2a" stroke-width="1.6" opacity="1"/>
<line x1="372.2" y1="228.0" x2="372.2" y2="234.0" stroke="#8a2f2a" stroke-width="1.6" opacity="1"/>
<line x1="399.8" y1="228.0" x2="399.8" y2="234.0" stroke="#8a2f2a" stroke-width="1.6" opacity="1"/>
<circle cx="386.0" cy="231.0" r="3.8" fill="#8a2f2a" stroke="#fff" stroke-width="0.8"/>
<text x="768" y="235.0" font-size="11" fill="#8a2f2a">-8.3% <tspan font-style="italic">***</tspan></text>
<rect x="0" y="246.0" width="900" height="30" fill="#f4f1ea"/>
<text x="10" y="265.0" font-size="12" font-weight="700" fill="#22314e">Loại căn hộ</text>
<text x="106" y="265.0" font-size="11.5" fill="#333">Mã 2</text>
<line x1="453.0" y1="261.0" x2="734.5" y2="261.0" stroke="#1f5c3d" stroke-width="1.6" opacity="1"/>
<line x1="453.0" y1="258.0" x2="453.0" y2="264.0" stroke="#1f5c3d" stroke-width="1.6" opacity="1"/>
<line x1="734.5" y1="258.0" x2="734.5" y2="264.0" stroke="#1f5c3d" stroke-width="1.6" opacity="1"/>
<circle cx="578.6" cy="261.0" r="3.8" fill="#1f5c3d" stroke="#fff" stroke-width="0.8"/>
<text x="768" y="265.0" font-size="11" fill="#1f5c3d">+29.4% <tspan font-style="italic">*</tspan></text>
<text x="106" y="295.0" font-size="11.5" fill="#333">Mã 3</text>
<line x1="427.0" y1="291.0" x2="584.6" y2="291.0" stroke="#9b968a" stroke-width="1.6" opacity="0.5"/>
<line x1="427.0" y1="288.0" x2="427.0" y2="294.0" stroke="#9b968a" stroke-width="1.6" opacity="0.5"/>
<line x1="584.6" y1="288.0" x2="584.6" y2="294.0" stroke="#9b968a" stroke-width="1.6" opacity="0.5"/>
<circle cx="500.5" cy="291.0" r="3.8" fill="#9b968a" stroke="#fff" stroke-width="0.8"/>
<text x="768" y="295.0" font-size="11" fill="#9b968a">+14.1% <tspan font-style="italic">n.s.</tspan></text>
<rect x="0" y="306.0" width="900" height="30" fill="#f4f1ea"/>
<text x="106" y="325.0" font-size="11.5" fill="#333">Mã 4</text>
<line x1="411.9" y1="321.0" x2="684.7" y2="321.0" stroke="#9b968a" stroke-width="1.6" opacity="0.5"/>
<line x1="411.9" y1="318.0" x2="411.9" y2="324.0" stroke="#9b968a" stroke-width="1.6" opacity="0.5"/>
<line x1="684.7" y1="318.0" x2="684.7" y2="324.0" stroke="#9b968a" stroke-width="1.6" opacity="0.5"/>
<circle cx="533.4" cy="321.0" r="3.8" fill="#9b968a" stroke="#fff" stroke-width="0.8"/>
<text x="768" y="325.0" font-size="11" fill="#9b968a">+20.6% <tspan font-style="italic">n.s.</tspan></text>
<text x="106" y="355.0" font-size="11.5" fill="#333">Mã 5</text>
<line x1="297.1" y1="351.0" x2="394.5" y2="351.0" stroke="#8a2f2a" stroke-width="1.6" opacity="1"/>
<line x1="297.1" y1="348.0" x2="297.1" y2="354.0" stroke="#8a2f2a" stroke-width="1.6" opacity="1"/>
<line x1="394.5" y1="348.0" x2="394.5" y2="354.0" stroke="#8a2f2a" stroke-width="1.6" opacity="1"/>
<circle cx="343.2" cy="351.0" r="3.8" fill="#8a2f2a" stroke="#fff" stroke-width="0.8"/>
<text x="768" y="355.0" font-size="11" fill="#8a2f2a">-16.7% <tspan font-style="italic">**</tspan></text>
<rect x="0" y="366.0" width="900" height="30" fill="#f4f1ea"/>
<text x="106" y="385.0" font-size="11.5" fill="#333">Officetel (mã 6)</text>
<line x1="453.0" y1="381.0" x2="542.7" y2="381.0" stroke="#1f5c3d" stroke-width="1.6" opacity="1"/>
<line x1="453.0" y1="378.0" x2="453.0" y2="384.0" stroke="#1f5c3d" stroke-width="1.6" opacity="1"/>
<line x1="542.7" y1="378.0" x2="542.7" y2="384.0" stroke="#1f5c3d" stroke-width="1.6" opacity="1"/>
<circle cx="496.4" cy="381.0" r="3.8" fill="#1f5c3d" stroke="#fff" stroke-width="0.8"/>
<text x="768" y="385.0" font-size="11" fill="#1f5c3d">+13.3% <tspan font-style="italic">**</tspan></text>
<text x="10" y="415.0" font-size="12" font-weight="700" fill="#22314e">Pháp lý</text>
<text x="106" y="415.0" font-size="11.5" fill="#333">Mã 2</text>
<line x1="278.3" y1="411.0" x2="403.1" y2="411.0" stroke="#8a2f2a" stroke-width="1.6" opacity="1"/>
<line x1="278.3" y1="408.0" x2="278.3" y2="414.0" stroke="#8a2f2a" stroke-width="1.6" opacity="1"/>
<line x1="403.1" y1="408.0" x2="403.1" y2="414.0" stroke="#8a2f2a" stroke-width="1.6" opacity="1"/>
<circle cx="336.1" cy="411.0" r="3.8" fill="#8a2f2a" stroke="#fff" stroke-width="0.8"/>
<text x="768" y="415.0" font-size="11" fill="#8a2f2a">-18.1% <tspan font-style="italic">**</tspan></text>
<rect x="0" y="426.0" width="900" height="30" fill="#f4f1ea"/>
<text x="106" y="445.0" font-size="11.5" fill="#333">Mã 4</text>
<line x1="310.2" y1="441.0" x2="484.4" y2="441.0" stroke="#9b968a" stroke-width="1.6" opacity="0.5"/>
<line x1="310.2" y1="438.0" x2="310.2" y2="444.0" stroke="#9b968a" stroke-width="1.6" opacity="0.5"/>
<line x1="484.4" y1="438.0" x2="484.4" y2="444.0" stroke="#9b968a" stroke-width="1.6" opacity="0.5"/>
<circle cx="389.3" cy="441.0" r="3.8" fill="#9b968a" stroke="#fff" stroke-width="0.8"/>
<text x="768" y="445.0" font-size="11" fill="#9b968a">-7.7% <tspan font-style="italic">n.s.</tspan></text>
<text x="106" y="475.0" font-size="11.5" fill="#333">Mã 5</text>
<line x1="313.3" y1="471.0" x2="445.1" y2="471.0" stroke="#9b968a" stroke-width="1.6" opacity="0.5"/>
<line x1="313.3" y1="468.0" x2="313.3" y2="474.0" stroke="#9b968a" stroke-width="1.6" opacity="0.5"/>
<line x1="445.1" y1="468.0" x2="445.1" y2="474.0" stroke="#9b968a" stroke-width="1.6" opacity="0.5"/>
<circle cx="374.5" cy="471.0" r="3.8" fill="#9b968a" stroke="#fff" stroke-width="0.8"/>
<text x="768" y="475.0" font-size="11" fill="#9b968a">-10.6% <tspan font-style="italic">n.s.</tspan></text>
<rect x="0" y="486.0" width="900" height="30" fill="#f4f1ea"/>
<text x="106" y="505.0" font-size="11.5" fill="#333">Mã 6</text>
<line x1="311.0" y1="501.0" x2="438.8" y2="501.0" stroke="#9b968a" stroke-width="1.6" opacity="0.5"/>
<line x1="311.0" y1="498.0" x2="311.0" y2="504.0" stroke="#9b968a" stroke-width="1.6" opacity="0.5"/>
<line x1="438.8" y1="498.0" x2="438.8" y2="504.0" stroke="#9b968a" stroke-width="1.6" opacity="0.5"/>
<circle cx="370.4" cy="501.0" r="3.8" fill="#9b968a" stroke="#fff" stroke-width="0.8"/>
<text x="768" y="505.0" font-size="11" fill="#9b968a">-11.4% <tspan font-style="italic">n.s.</tspan></text>
<text x="106" y="535.0" font-size="11.5" fill="#333">Thiếu dữ liệu</text>
<line x1="322.1" y1="531.0" x2="454.6" y2="531.0" stroke="#9b968a" stroke-width="1.6" opacity="0.5"/>
<line x1="322.1" y1="528.0" x2="322.1" y2="534.0" stroke="#9b968a" stroke-width="1.6" opacity="0.5"/>
<line x1="454.6" y1="528.0" x2="454.6" y2="534.0" stroke="#9b968a" stroke-width="1.6" opacity="0.5"/>
<circle cx="383.7" cy="531.0" r="3.8" fill="#9b968a" stroke="#fff" stroke-width="0.8"/>
<text x="768" y="535.0" font-size="11" fill="#9b968a">-8.8% <tspan font-style="italic">n.s.</tspan></text>
</svg>
